<mxfile host="app.diagrams.net" modified="2020-12-21T10:58:26.703Z" agent="5.0 (Windows NT 10.0; Win64; x64) AppleWebKit/537.36 (KHTML, like Gecko) Chrome/87.0.4280.88 Safari/537.36 Edg/87.0.664.66" etag="lBpkKp8O1fXOFPuEo3af" version="14.1.1" type="github">
  <diagram id="wFXlAkj7J1B8MkQOnV6k" name="Page-1">
    <mxGraphModel dx="1022" dy="706" grid="1" gridSize="10" guides="1" tooltips="1" connect="1" arrows="1" fold="1" page="1" pageScale="1" pageWidth="850" pageHeight="1100" math="0" shadow="0">
      <root>
        <mxCell id="0" />
        <mxCell id="1" parent="0" />
        <mxCell id="dCWlFAHHSL4dB9tLSZ9Q-2" value="DataGetter" style="swimlane;fontStyle=0;childLayout=stackLayout;horizontal=1;startSize=26;fillColor=none;horizontalStack=0;resizeParent=1;resizeParentMax=0;resizeLast=0;collapsible=1;marginBottom=0;" parent="1" vertex="1">
          <mxGeometry x="350" y="550" width="140" height="52" as="geometry" />
        </mxCell>
        <mxCell id="dCWlFAHHSL4dB9tLSZ9Q-6" value="«interface»&lt;br&gt;&lt;b&gt;DataTheoMaFetcher&lt;/b&gt;" style="html=1;" parent="1" vertex="1">
          <mxGeometry x="90" y="650" width="140" height="50" as="geometry" />
        </mxCell>
        <mxCell id="dCWlFAHHSL4dB9tLSZ9Q-7" value="«interface»&lt;br&gt;&lt;b&gt;DataTheoMaNhieuNgayFetcher&lt;/b&gt;" style="html=1;" parent="1" vertex="1">
          <mxGeometry x="240" y="650" width="180" height="50" as="geometry" />
        </mxCell>
        <mxCell id="dCWlFAHHSL4dB9tLSZ9Q-8" value="«interface»&lt;br&gt;&lt;b&gt;DataByGroupFetcher&lt;/b&gt;" style="html=1;" parent="1" vertex="1">
          <mxGeometry x="430" y="650" width="150" height="50" as="geometry" />
        </mxCell>
        <mxCell id="dCWlFAHHSL4dB9tLSZ9Q-9" value="«interface»&lt;br&gt;&lt;b&gt;DataBluechipFetcher&lt;br&gt;&lt;/b&gt;" style="html=1;" parent="1" vertex="1">
          <mxGeometry x="600" y="650" width="140" height="50" as="geometry" />
        </mxCell>
        <mxCell id="dCWlFAHHSL4dB9tLSZ9Q-15" value="DataTheoMaRealtime" style="swimlane;fontStyle=1;align=center;verticalAlign=top;childLayout=stackLayout;horizontal=1;startSize=26;horizontalStack=0;resizeParent=1;resizeParentMax=0;resizeLast=0;collapsible=1;marginBottom=0;" parent="1" vertex="1">
          <mxGeometry x="80" y="740" width="160" height="34" as="geometry" />
        </mxCell>
        <mxCell id="dCWlFAHHSL4dB9tLSZ9Q-19" value="DataTheoMaNhieuNgayRealtime" style="swimlane;fontStyle=1;align=center;verticalAlign=top;childLayout=stackLayout;horizontal=1;startSize=26;horizontalStack=0;resizeParent=1;resizeParentMax=0;resizeLast=0;collapsible=1;marginBottom=0;" parent="1" vertex="1">
          <mxGeometry x="250" y="740" width="220" height="34" as="geometry" />
        </mxCell>
        <mxCell id="dCWlFAHHSL4dB9tLSZ9Q-23" value="DataByGroupRealtime" style="swimlane;fontStyle=1;align=center;verticalAlign=top;childLayout=stackLayout;horizontal=1;startSize=26;horizontalStack=0;resizeParent=1;resizeParentMax=0;resizeLast=0;collapsible=1;marginBottom=0;" parent="1" vertex="1">
          <mxGeometry x="480" y="740" width="170" height="34" as="geometry" />
        </mxCell>
        <mxCell id="dCWlFAHHSL4dB9tLSZ9Q-27" value="DataBlueChipRealtime" style="swimlane;fontStyle=1;align=center;verticalAlign=top;childLayout=stackLayout;horizontal=1;startSize=26;horizontalStack=0;resizeParent=1;resizeParentMax=0;resizeLast=0;collapsible=1;marginBottom=0;" parent="1" vertex="1">
          <mxGeometry x="690" y="740" width="170" height="34" as="geometry" />
        </mxCell>
        <mxCell id="dCWlFAHHSL4dB9tLSZ9Q-31" value="" style="endArrow=block;dashed=1;endFill=0;endSize=12;html=1;entryX=0.55;entryY=1;entryDx=0;entryDy=0;entryPerimeter=0;exitX=0.544;exitY=-0.023;exitDx=0;exitDy=0;exitPerimeter=0;" parent="1" source="dCWlFAHHSL4dB9tLSZ9Q-15" target="dCWlFAHHSL4dB9tLSZ9Q-6" edge="1">
          <mxGeometry width="160" relative="1" as="geometry">
            <mxPoint x="130" y="720" as="sourcePoint" />
            <mxPoint x="290" y="720" as="targetPoint" />
          </mxGeometry>
        </mxCell>
        <mxCell id="dCWlFAHHSL4dB9tLSZ9Q-32" value="" style="endArrow=block;dashed=1;endFill=0;endSize=12;html=1;entryX=0.45;entryY=0.98;entryDx=0;entryDy=0;entryPerimeter=0;exitX=0.4;exitY=0.012;exitDx=0;exitDy=0;exitPerimeter=0;" parent="1" source="dCWlFAHHSL4dB9tLSZ9Q-19" target="dCWlFAHHSL4dB9tLSZ9Q-7" edge="1">
          <mxGeometry width="160" relative="1" as="geometry">
            <mxPoint x="177.03999999999996" y="748.022" as="sourcePoint" />
            <mxPoint x="177" y="710" as="targetPoint" />
          </mxGeometry>
        </mxCell>
        <mxCell id="dCWlFAHHSL4dB9tLSZ9Q-33" value="" style="endArrow=block;dashed=1;endFill=0;endSize=12;html=1;entryX=0.5;entryY=1;entryDx=0;entryDy=0;" parent="1" source="dCWlFAHHSL4dB9tLSZ9Q-23" target="dCWlFAHHSL4dB9tLSZ9Q-8" edge="1">
          <mxGeometry width="160" relative="1" as="geometry">
            <mxPoint x="348" y="751.032" as="sourcePoint" />
            <mxPoint x="331" y="709" as="targetPoint" />
          </mxGeometry>
        </mxCell>
        <mxCell id="dCWlFAHHSL4dB9tLSZ9Q-34" value="" style="endArrow=block;dashed=1;endFill=0;endSize=12;html=1;entryX=0.5;entryY=1;entryDx=0;entryDy=0;exitX=0.065;exitY=-0.023;exitDx=0;exitDy=0;exitPerimeter=0;" parent="1" source="dCWlFAHHSL4dB9tLSZ9Q-27" target="dCWlFAHHSL4dB9tLSZ9Q-9" edge="1">
          <mxGeometry width="160" relative="1" as="geometry">
            <mxPoint x="543.9156626506024" y="750" as="sourcePoint" />
            <mxPoint x="515" y="710" as="targetPoint" />
          </mxGeometry>
        </mxCell>
        <mxCell id="dCWlFAHHSL4dB9tLSZ9Q-35" value="" style="endArrow=diamondThin;endFill=1;endSize=24;html=1;entryX=0;entryY=1;entryDx=0;entryDy=0;exitX=0.579;exitY=-0.04;exitDx=0;exitDy=0;exitPerimeter=0;" parent="1" source="dCWlFAHHSL4dB9tLSZ9Q-6" target="dCWlFAHHSL4dB9tLSZ9Q-2" edge="1">
          <mxGeometry width="160" relative="1" as="geometry">
            <mxPoint x="150" y="620" as="sourcePoint" />
            <mxPoint x="310" y="620" as="targetPoint" />
          </mxGeometry>
        </mxCell>
        <mxCell id="dCWlFAHHSL4dB9tLSZ9Q-36" value="" style="endArrow=diamondThin;endFill=1;endSize=24;html=1;entryX=0.25;entryY=1;entryDx=0;entryDy=0;" parent="1" source="dCWlFAHHSL4dB9tLSZ9Q-7" target="dCWlFAHHSL4dB9tLSZ9Q-2" edge="1">
          <mxGeometry width="160" relative="1" as="geometry">
            <mxPoint x="181.05999999999995" y="658" as="sourcePoint" />
            <mxPoint x="370" y="610" as="targetPoint" />
          </mxGeometry>
        </mxCell>
        <mxCell id="dCWlFAHHSL4dB9tLSZ9Q-37" value="" style="endArrow=diamondThin;endFill=1;endSize=24;html=1;entryX=0.5;entryY=1;entryDx=0;entryDy=0;exitX=0.25;exitY=0;exitDx=0;exitDy=0;" parent="1" source="dCWlFAHHSL4dB9tLSZ9Q-8" target="dCWlFAHHSL4dB9tLSZ9Q-2" edge="1">
          <mxGeometry width="160" relative="1" as="geometry">
            <mxPoint x="358.8356164383563" y="660" as="sourcePoint" />
            <mxPoint x="395" y="612" as="targetPoint" />
          </mxGeometry>
        </mxCell>
        <mxCell id="dCWlFAHHSL4dB9tLSZ9Q-38" value="" style="endArrow=diamondThin;endFill=1;endSize=24;html=1;exitX=0.15;exitY=0;exitDx=0;exitDy=0;exitPerimeter=0;entryX=1;entryY=1;entryDx=0;entryDy=0;" parent="1" source="dCWlFAHHSL4dB9tLSZ9Q-9" target="dCWlFAHHSL4dB9tLSZ9Q-2" edge="1">
          <mxGeometry width="160" relative="1" as="geometry">
            <mxPoint x="477.5" y="660" as="sourcePoint" />
            <mxPoint x="460" y="610" as="targetPoint" />
          </mxGeometry>
        </mxCell>
        <mxCell id="dCWlFAHHSL4dB9tLSZ9Q-40" value="HomeController" style="swimlane;fontStyle=1;align=center;verticalAlign=top;childLayout=stackLayout;horizontal=1;startSize=26;horizontalStack=0;resizeParent=1;resizeParentMax=0;resizeLast=0;collapsible=1;marginBottom=0;" parent="1" vertex="1">
          <mxGeometry x="345" y="410" width="160" height="34" as="geometry" />
        </mxCell>
        <mxCell id="dCWlFAHHSL4dB9tLSZ9Q-48" value="Data" style="swimlane;fontStyle=3;childLayout=stackLayout;horizontal=1;startSize=26;fillColor=none;horizontalStack=0;resizeParent=1;resizeParentMax=0;resizeLast=0;collapsible=1;marginBottom=0;" parent="1" vertex="1">
          <mxGeometry x="360" y="840" width="140" height="52" as="geometry" />
        </mxCell>
        <mxCell id="dCWlFAHHSL4dB9tLSZ9Q-52" value="DataRealtime" style="swimlane;fontStyle=1;align=center;verticalAlign=top;childLayout=stackLayout;horizontal=1;startSize=26;horizontalStack=0;resizeParent=1;resizeParentMax=0;resizeLast=0;collapsible=1;marginBottom=0;" parent="1" vertex="1">
          <mxGeometry x="370" y="960" width="160" height="34" as="geometry" />
        </mxCell>
        <mxCell id="dCWlFAHHSL4dB9tLSZ9Q-60" value="Extends" style="endArrow=block;endSize=16;endFill=0;html=1;exitX=0.416;exitY=0.001;exitDx=0;exitDy=0;exitPerimeter=0;entryX=0.5;entryY=1;entryDx=0;entryDy=0;" parent="1" source="dCWlFAHHSL4dB9tLSZ9Q-52" target="dCWlFAHHSL4dB9tLSZ9Q-48" edge="1">
          <mxGeometry width="160" relative="1" as="geometry">
            <mxPoint x="215" y="940" as="sourcePoint" />
            <mxPoint x="425" y="920" as="targetPoint" />
          </mxGeometry>
        </mxCell>
        <mxCell id="dCWlFAHHSL4dB9tLSZ9Q-61" value="" style="endArrow=diamondThin;endFill=0;endSize=24;html=1;" parent="1" source="dCWlFAHHSL4dB9tLSZ9Q-48" edge="1">
          <mxGeometry width="160" relative="1" as="geometry">
            <mxPoint x="180" y="920" as="sourcePoint" />
            <mxPoint x="340" y="780" as="targetPoint" />
          </mxGeometry>
        </mxCell>
        <mxCell id="dCWlFAHHSL4dB9tLSZ9Q-62" value="" style="endArrow=diamondThin;endFill=0;endSize=24;html=1;exitX=0;exitY=0;exitDx=0;exitDy=0;exitPerimeter=0;" parent="1" source="dCWlFAHHSL4dB9tLSZ9Q-48" edge="1">
          <mxGeometry width="160" relative="1" as="geometry">
            <mxPoint x="415.08676280923896" y="879.9999999999998" as="sourcePoint" />
            <mxPoint x="190" y="780" as="targetPoint" />
          </mxGeometry>
        </mxCell>
        <mxCell id="dCWlFAHHSL4dB9tLSZ9Q-63" value="" style="endArrow=diamondThin;endFill=0;endSize=24;html=1;exitX=0.637;exitY=-0.043;exitDx=0;exitDy=0;exitPerimeter=0;entryX=0.5;entryY=1;entryDx=0;entryDy=0;" parent="1" source="dCWlFAHHSL4dB9tLSZ9Q-48" target="dCWlFAHHSL4dB9tLSZ9Q-23" edge="1">
          <mxGeometry width="160" relative="1" as="geometry">
            <mxPoint x="369.9999999999998" y="879.9999999999998" as="sourcePoint" />
            <mxPoint x="540" y="770" as="targetPoint" />
          </mxGeometry>
        </mxCell>
        <mxCell id="dCWlFAHHSL4dB9tLSZ9Q-64" value="" style="endArrow=diamondThin;endFill=0;endSize=24;html=1;exitX=1;exitY=0;exitDx=0;exitDy=0;" parent="1" source="dCWlFAHHSL4dB9tLSZ9Q-48" edge="1">
          <mxGeometry width="160" relative="1" as="geometry">
            <mxPoint x="500" y="870" as="sourcePoint" />
            <mxPoint x="700" y="780" as="targetPoint" />
          </mxGeometry>
        </mxCell>
        <mxCell id="dCWlFAHHSL4dB9tLSZ9Q-65" value="" style="endArrow=diamondThin;endFill=0;endSize=24;html=1;exitX=0.5;exitY=0;exitDx=0;exitDy=0;entryX=0.25;entryY=1;entryDx=0;entryDy=0;" parent="1" source="dCWlFAHHSL4dB9tLSZ9Q-2" target="dCWlFAHHSL4dB9tLSZ9Q-40" edge="1">
          <mxGeometry width="160" relative="1" as="geometry">
            <mxPoint x="459.18000000000006" y="877.7639999999999" as="sourcePoint" />
            <mxPoint x="400" y="400" as="targetPoint" />
          </mxGeometry>
        </mxCell>
        <mxCell id="dCWlFAHHSL4dB9tLSZ9Q-66" value="SentenceByTickerGenerator" style="swimlane;fontStyle=1;align=center;verticalAlign=top;childLayout=stackLayout;horizontal=1;startSize=26;horizontalStack=0;resizeParent=1;resizeParentMax=0;resizeLast=0;collapsible=1;marginBottom=0;" parent="1" vertex="1">
          <mxGeometry x="460" y="480" width="170" height="34" as="geometry" />
        </mxCell>
        <mxCell id="dCWlFAHHSL4dB9tLSZ9Q-70" value="SentenceBluechip" style="swimlane;fontStyle=1;align=center;verticalAlign=top;childLayout=stackLayout;horizontal=1;startSize=26;horizontalStack=0;resizeParent=1;resizeParentMax=0;resizeLast=0;collapsible=1;marginBottom=0;" parent="1" vertex="1">
          <mxGeometry x="230" y="480" width="160" height="34" as="geometry" />
        </mxCell>
        <mxCell id="dCWlFAHHSL4dB9tLSZ9Q-74" value="SentenceWithGroupGenerator" style="swimlane;fontStyle=1;align=center;verticalAlign=top;childLayout=stackLayout;horizontal=1;startSize=26;horizontalStack=0;resizeParent=1;resizeParentMax=0;resizeLast=0;collapsible=1;marginBottom=0;" parent="1" vertex="1">
          <mxGeometry x="640" y="480" width="180" height="34" as="geometry" />
        </mxCell>
        <mxCell id="dCWlFAHHSL4dB9tLSZ9Q-78" value="" style="endArrow=diamondThin;endFill=0;endSize=24;html=1;exitX=0.55;exitY=-0.026;exitDx=0;exitDy=0;exitPerimeter=0;entryX=0;entryY=1;entryDx=0;entryDy=0;" parent="1" source="dCWlFAHHSL4dB9tLSZ9Q-70" target="dCWlFAHHSL4dB9tLSZ9Q-40" edge="1">
          <mxGeometry width="160" relative="1" as="geometry">
            <mxPoint x="439.9999999999998" y="630" as="sourcePoint" />
            <mxPoint x="360" y="370" as="targetPoint" />
          </mxGeometry>
        </mxCell>
        <mxCell id="dCWlFAHHSL4dB9tLSZ9Q-79" value="" style="endArrow=diamondThin;endFill=0;endSize=24;html=1;entryX=0.75;entryY=1;entryDx=0;entryDy=0;exitX=0.182;exitY=-0.033;exitDx=0;exitDy=0;exitPerimeter=0;" parent="1" source="dCWlFAHHSL4dB9tLSZ9Q-66" target="dCWlFAHHSL4dB9tLSZ9Q-40" edge="1">
          <mxGeometry width="160" relative="1" as="geometry">
            <mxPoint x="267.9999999999998" y="467.7639999999999" as="sourcePoint" />
            <mxPoint x="457.9999999999998" y="391.76800000000003" as="targetPoint" />
          </mxGeometry>
        </mxCell>
        <mxCell id="dCWlFAHHSL4dB9tLSZ9Q-80" value="" style="endArrow=diamondThin;endFill=0;endSize=24;html=1;entryX=1;entryY=1;entryDx=0;entryDy=0;exitX=0.25;exitY=0;exitDx=0;exitDy=0;" parent="1" source="dCWlFAHHSL4dB9tLSZ9Q-74" target="dCWlFAHHSL4dB9tLSZ9Q-40" edge="1">
          <mxGeometry width="160" relative="1" as="geometry">
            <mxPoint x="520.9399999999998" y="477.16200000000003" as="sourcePoint" />
            <mxPoint x="509.9999999999998" y="383.994" as="targetPoint" />
          </mxGeometry>
        </mxCell>
        <mxCell id="dCWlFAHHSL4dB9tLSZ9Q-83" value="" style="endArrow=diamondThin;endFill=0;endSize=24;html=1;entryX=0;entryY=1;entryDx=0;entryDy=0;exitX=0.625;exitY=-0.043;exitDx=0;exitDy=0;exitPerimeter=0;" parent="1" source="dCWlFAHHSL4dB9tLSZ9Q-2" target="dCWlFAHHSL4dB9tLSZ9Q-66" edge="1">
          <mxGeometry width="160" relative="1" as="geometry">
            <mxPoint x="385.0599999999997" y="561.3" as="sourcePoint" />
            <mxPoint x="470.3399999999999" y="491.1700000000001" as="targetPoint" />
          </mxGeometry>
        </mxCell>
      </root>
    </mxGraphModel>
  </diagram>
</mxfile>
